<?xml version="1.0" encoding="UTF-8" standalone="no"?>
<svg
   xmlns:dc="http://purl.org/dc/elements/1.1/"
   xmlns:cc="http://creativecommons.org/ns#"
   xmlns:rdf="http://www.w3.org/1999/02/22-rdf-syntax-ns#"
   xmlns:svg="http://www.w3.org/2000/svg"
   xmlns="http://www.w3.org/2000/svg"
   viewBox="0 0 768 480"
   height="480"
   width="768"
   xml:space="preserve"
   id="svg2"
   version="1.1"><metadata
     id="metadata8"><rdf:RDF><cc:Work
         rdf:about=""><dc:format>image/svg+xml</dc:format><dc:type
           rdf:resource="http://purl.org/dc/dcmitype/StillImage" /></cc:Work></rdf:RDF></metadata><defs
     id="defs6"><clipPath
       id="clipPath22"
       clipPathUnits="userSpaceOnUse"><path
         id="path20"
         d="M 72,45 H 518.4 V 316.8 H 72 Z" /></clipPath><clipPath
       id="clipPath40"
       clipPathUnits="userSpaceOnUse"><path
         id="path38"
         d="M 72,45 H 518.4 V 316.8 H 72 Z" /></clipPath><clipPath
       id="clipPath58"
       clipPathUnits="userSpaceOnUse"><path
         id="path56"
         d="M 72,45 H 518.4 V 316.8 H 72 Z" /></clipPath><clipPath
       id="clipPath76"
       clipPathUnits="userSpaceOnUse"><path
         id="path74"
         d="M 72,45 H 518.4 V 316.8 H 72 Z" /></clipPath><clipPath
       id="clipPath94"
       clipPathUnits="userSpaceOnUse"><path
         id="path92"
         d="M 72,45 H 518.4 V 316.8 H 72 Z" /></clipPath><clipPath
       id="clipPath112"
       clipPathUnits="userSpaceOnUse"><path
         id="path110"
         d="M 72,45 H 518.4 V 316.8 H 72 Z" /></clipPath><clipPath
       id="clipPath130"
       clipPathUnits="userSpaceOnUse"><path
         id="path128"
         d="M 72,45 H 518.4 V 316.8 H 72 Z" /></clipPath><clipPath
       id="clipPath148"
       clipPathUnits="userSpaceOnUse"><path
         id="path146"
         d="M 72,45 H 518.4 V 316.8 H 72 Z" /></clipPath><clipPath
       id="clipPath166"
       clipPathUnits="userSpaceOnUse"><path
         id="path164"
         d="M 72,45 H 518.4 V 316.8 H 72 Z" /></clipPath><clipPath
       id="clipPath188"
       clipPathUnits="userSpaceOnUse"><path
         id="path186"
         d="M 72,45 H 518.4 V 316.8 H 72 Z" /></clipPath><clipPath
       id="clipPath206"
       clipPathUnits="userSpaceOnUse"><path
         id="path204"
         d="M 72,45 H 518.4 V 316.8 H 72 Z" /></clipPath><clipPath
       id="clipPath224"
       clipPathUnits="userSpaceOnUse"><path
         id="path222"
         d="M 72,45 H 518.4 V 316.8 H 72 Z" /></clipPath><clipPath
       id="clipPath242"
       clipPathUnits="userSpaceOnUse"><path
         id="path240"
         d="M 72,45 H 518.4 V 316.8 H 72 Z" /></clipPath><clipPath
       id="clipPath260"
       clipPathUnits="userSpaceOnUse"><path
         id="path258"
         d="M 72,45 H 518.4 V 316.8 H 72 Z" /></clipPath><clipPath
       id="clipPath282"
       clipPathUnits="userSpaceOnUse"><path
         id="path280"
         d="M 72,45 H 518.4 V 316.8 H 72 Z" /></clipPath><clipPath
       id="clipPath292"
       clipPathUnits="userSpaceOnUse"><path
         id="path290"
         d="M 72,45 H 518.4 V 316.8 H 72 Z" /></clipPath></defs><g
     transform="matrix(1.3333333,0,0,-1.3333333,0,480)"
     id="g10"><path
       id="path12"
       style="fill:#ffffff;fill-opacity:1;fill-rule:nonzero;stroke:none"
       d="M 0,0 H 576 V 360 H 0 Z" /><path
       id="path14"
       style="fill:#e5e5e5;fill-opacity:1;fill-rule:nonzero;stroke:none"
       d="M 72,45 H 518.4 V 316.8 H 72 Z" /><g
       id="g16"><g
         clip-path="url(#clipPath22)"
         id="g18"><path
           id="path24"
           style="fill:none;stroke:#ffffff;stroke-width:0.80000001;stroke-linecap:square;stroke-linejoin:round;stroke-miterlimit:10;stroke-dasharray:none;stroke-opacity:1"
           d="M 92.290909,45 V 316.8" /></g></g><g
       id="g26"><path
         id="path28"
         style="fill:#555555;fill-opacity:1;fill-rule:nonzero;stroke:#555555;stroke-width:0.80000001;stroke-linecap:butt;stroke-linejoin:round;stroke-miterlimit:10;stroke-dasharray:none;stroke-opacity:1"
         d="M 92.290909,45 V 41.5" /><text
         id="text32"
         style="font-variant:normal;font-weight:normal;font-size:10px;font-family:'DejaVu Sans';-inkscape-font-specification:DejaVuSans;writing-mode:lr-tb;fill:#555555;fill-opacity:1;fill-rule:nonzero;stroke:none"
         transform="matrix(1,0,0,-1,89.111222,30.40625)"><tspan
           id="tspan30"
           y="0"
           x="0">0</tspan></text>
</g><g
       id="g34"><g
         clip-path="url(#clipPath40)"
         id="g36"><path
           id="path42"
           style="fill:none;stroke:#ffffff;stroke-width:0.80000001;stroke-linecap:square;stroke-linejoin:round;stroke-miterlimit:10;stroke-dasharray:none;stroke-opacity:1"
           d="M 143.27309,45 V 316.8" /></g></g><g
       id="g44"><path
         id="path46"
         style="fill:#555555;fill-opacity:1;fill-rule:nonzero;stroke:#555555;stroke-width:0.80000001;stroke-linecap:butt;stroke-linejoin:round;stroke-miterlimit:10;stroke-dasharray:none;stroke-opacity:1"
         d="M 143.27309,45 V 41.5" /><text
         id="text50"
         style="font-variant:normal;font-weight:normal;font-size:10px;font-family:'DejaVu Sans';-inkscape-font-specification:DejaVuSans;writing-mode:lr-tb;fill:#555555;fill-opacity:1;fill-rule:nonzero;stroke:none"
         transform="matrix(1,0,0,-1,136.91372,30.40625)"><tspan
           id="tspan48"
           y="0"
           x="0 6.3600001">25</tspan></text>
</g><g
       id="g52"><g
         clip-path="url(#clipPath58)"
         id="g54"><path
           id="path60"
           style="fill:none;stroke:#ffffff;stroke-width:0.80000001;stroke-linecap:square;stroke-linejoin:round;stroke-miterlimit:10;stroke-dasharray:none;stroke-opacity:1"
           d="M 194.25528,45 V 316.8" /></g></g><g
       id="g62"><path
         id="path64"
         style="fill:#555555;fill-opacity:1;fill-rule:nonzero;stroke:#555555;stroke-width:0.80000001;stroke-linecap:butt;stroke-linejoin:round;stroke-miterlimit:10;stroke-dasharray:none;stroke-opacity:1"
         d="M 194.25528,45 V 41.5" /><text
         id="text68"
         style="font-variant:normal;font-weight:normal;font-size:10px;font-family:'DejaVu Sans';-inkscape-font-specification:DejaVuSans;writing-mode:lr-tb;fill:#555555;fill-opacity:1;fill-rule:nonzero;stroke:none"
         transform="matrix(1,0,0,-1,187.8959,30.40625)"><tspan
           id="tspan66"
           y="0"
           x="0 6.3600001">50</tspan></text>
</g><g
       id="g70"><g
         clip-path="url(#clipPath76)"
         id="g72"><path
           id="path78"
           style="fill:none;stroke:#ffffff;stroke-width:0.80000001;stroke-linecap:square;stroke-linejoin:round;stroke-miterlimit:10;stroke-dasharray:none;stroke-opacity:1"
           d="M 245.23746,45 V 316.8" /></g></g><g
       id="g80"><path
         id="path82"
         style="fill:#555555;fill-opacity:1;fill-rule:nonzero;stroke:#555555;stroke-width:0.80000001;stroke-linecap:butt;stroke-linejoin:round;stroke-miterlimit:10;stroke-dasharray:none;stroke-opacity:1"
         d="M 245.23746,45 V 41.5" /><text
         id="text86"
         style="font-variant:normal;font-weight:normal;font-size:10px;font-family:'DejaVu Sans';-inkscape-font-specification:DejaVuSans;writing-mode:lr-tb;fill:#555555;fill-opacity:1;fill-rule:nonzero;stroke:none"
         transform="matrix(1,0,0,-1,238.87809,30.40625)"><tspan
           id="tspan84"
           y="0"
           x="0 6.3600001">75</tspan></text>
</g><g
       id="g88"><g
         clip-path="url(#clipPath94)"
         id="g90"><path
           id="path96"
           style="fill:none;stroke:#ffffff;stroke-width:0.80000001;stroke-linecap:square;stroke-linejoin:round;stroke-miterlimit:10;stroke-dasharray:none;stroke-opacity:1"
           d="M 296.21964,45 V 316.8" /></g></g><g
       id="g98"><path
         id="path100"
         style="fill:#555555;fill-opacity:1;fill-rule:nonzero;stroke:#555555;stroke-width:0.80000001;stroke-linecap:butt;stroke-linejoin:round;stroke-miterlimit:10;stroke-dasharray:none;stroke-opacity:1"
         d="M 296.21964,45 V 41.5" /><text
         id="text104"
         style="font-variant:normal;font-weight:normal;font-size:10px;font-family:'DejaVu Sans';-inkscape-font-specification:DejaVuSans;writing-mode:lr-tb;fill:#555555;fill-opacity:1;fill-rule:nonzero;stroke:none"
         transform="matrix(1,0,0,-1,286.68058,30.40625)"><tspan
           id="tspan102"
           y="0"
           x="0 6.3600001 12.72">100</tspan></text>
</g><g
       id="g106"><g
         clip-path="url(#clipPath112)"
         id="g108"><path
           id="path114"
           style="fill:none;stroke:#ffffff;stroke-width:0.80000001;stroke-linecap:square;stroke-linejoin:round;stroke-miterlimit:10;stroke-dasharray:none;stroke-opacity:1"
           d="M 347.20183,45 V 316.8" /></g></g><g
       id="g116"><path
         id="path118"
         style="fill:#555555;fill-opacity:1;fill-rule:nonzero;stroke:#555555;stroke-width:0.80000001;stroke-linecap:butt;stroke-linejoin:round;stroke-miterlimit:10;stroke-dasharray:none;stroke-opacity:1"
         d="M 347.20183,45 V 41.5" /><text
         id="text122"
         style="font-variant:normal;font-weight:normal;font-size:10px;font-family:'DejaVu Sans';-inkscape-font-specification:DejaVuSans;writing-mode:lr-tb;fill:#555555;fill-opacity:1;fill-rule:nonzero;stroke:none"
         transform="matrix(1,0,0,-1,337.66276,30.40625)"><tspan
           id="tspan120"
           y="0"
           x="0 6.3600001 12.72">125</tspan></text>
</g><g
       id="g124"><g
         clip-path="url(#clipPath130)"
         id="g126"><path
           id="path132"
           style="fill:none;stroke:#ffffff;stroke-width:0.80000001;stroke-linecap:square;stroke-linejoin:round;stroke-miterlimit:10;stroke-dasharray:none;stroke-opacity:1"
           d="M 398.18401,45 V 316.8" /></g></g><g
       id="g134"><path
         id="path136"
         style="fill:#555555;fill-opacity:1;fill-rule:nonzero;stroke:#555555;stroke-width:0.80000001;stroke-linecap:butt;stroke-linejoin:round;stroke-miterlimit:10;stroke-dasharray:none;stroke-opacity:1"
         d="M 398.18401,45 V 41.5" /><text
         id="text140"
         style="font-variant:normal;font-weight:normal;font-size:10px;font-family:'DejaVu Sans';-inkscape-font-specification:DejaVuSans;writing-mode:lr-tb;fill:#555555;fill-opacity:1;fill-rule:nonzero;stroke:none"
         transform="matrix(1,0,0,-1,388.64495,30.40625)"><tspan
           id="tspan138"
           y="0"
           x="0 6.3600001 12.72">150</tspan></text>
</g><g
       id="g142"><g
         clip-path="url(#clipPath148)"
         id="g144"><path
           id="path150"
           style="fill:none;stroke:#ffffff;stroke-width:0.80000001;stroke-linecap:square;stroke-linejoin:round;stroke-miterlimit:10;stroke-dasharray:none;stroke-opacity:1"
           d="M 449.16619,45 V 316.8" /></g></g><g
       id="g152"><path
         id="path154"
         style="fill:#555555;fill-opacity:1;fill-rule:nonzero;stroke:#555555;stroke-width:0.80000001;stroke-linecap:butt;stroke-linejoin:round;stroke-miterlimit:10;stroke-dasharray:none;stroke-opacity:1"
         d="M 449.16619,45 V 41.5" /><text
         id="text158"
         style="font-variant:normal;font-weight:normal;font-size:10px;font-family:'DejaVu Sans';-inkscape-font-specification:DejaVuSans;writing-mode:lr-tb;fill:#555555;fill-opacity:1;fill-rule:nonzero;stroke:none"
         transform="matrix(1,0,0,-1,439.62713,30.40625)"><tspan
           id="tspan156"
           y="0"
           x="0 6.3600001 12.72">175</tspan></text>
</g><g
       id="g160"><g
         clip-path="url(#clipPath166)"
         id="g162"><path
           id="path168"
           style="fill:none;stroke:#ffffff;stroke-width:0.80000001;stroke-linecap:square;stroke-linejoin:round;stroke-miterlimit:10;stroke-dasharray:none;stroke-opacity:1"
           d="M 500.14838,45 V 316.8" /></g></g><g
       id="g170"><path
         id="path172"
         style="fill:#555555;fill-opacity:1;fill-rule:nonzero;stroke:#555555;stroke-width:0.80000001;stroke-linecap:butt;stroke-linejoin:round;stroke-miterlimit:10;stroke-dasharray:none;stroke-opacity:1"
         d="M 500.14838,45 V 41.5" /><text
         id="text176"
         style="font-variant:normal;font-weight:normal;font-size:10px;font-family:'DejaVu Sans';-inkscape-font-specification:DejaVuSans;writing-mode:lr-tb;fill:#555555;fill-opacity:1;fill-rule:nonzero;stroke:none"
         transform="matrix(1,0,0,-1,490.60932,30.40625)"><tspan
           id="tspan174"
           y="0"
           x="0 6.3600001 12.72">200</tspan></text>
<text
         id="text180"
         style="font-variant:normal;font-weight:normal;font-size:12px;font-family:'DejaVu Sans';-inkscape-font-specification:DejaVuSans;writing-mode:lr-tb;fill:#555555;fill-opacity:1;fill-rule:nonzero;stroke:none"
         transform="matrix(1,0,0,-1,259.31719,15.203125)"><tspan
           id="tspan178"
           y="0"
           x="0 7.5840001 13.836 18.540001 21.875999 33.563999 40.919998 45.624001 52.967999 57.900002 61.716">Estimator #</tspan></text>
</g><g
       id="g182"><g
         clip-path="url(#clipPath188)"
         id="g184"><path
           id="path190"
           style="fill:none;stroke:#ffffff;stroke-width:0.80000001;stroke-linecap:square;stroke-linejoin:round;stroke-miterlimit:10;stroke-dasharray:none;stroke-opacity:1"
           d="M 72,61.558704 H 518.4" /></g></g><g
       id="g192"><path
         id="path194"
         style="fill:#555555;fill-opacity:1;fill-rule:nonzero;stroke:#555555;stroke-width:0.80000001;stroke-linecap:butt;stroke-linejoin:round;stroke-miterlimit:10;stroke-dasharray:none;stroke-opacity:1"
         d="M 72,61.558704 H 68.5" /><text
         id="text198"
         style="font-variant:normal;font-weight:normal;font-size:10px;font-family:'DejaVu Sans';-inkscape-font-specification:DejaVuSans;writing-mode:lr-tb;fill:#555555;fill-opacity:1;fill-rule:nonzero;stroke:none"
         transform="matrix(1,0,0,-1,42.734375,57.761829)"><tspan
           id="tspan196"
           y="0"
           x="0 6.3600001 9.54 15.9">0.76</tspan></text>
</g><g
       id="g200"><g
         clip-path="url(#clipPath206)"
         id="g202"><path
           id="path208"
           style="fill:none;stroke:#ffffff;stroke-width:0.80000001;stroke-linecap:square;stroke-linejoin:round;stroke-miterlimit:10;stroke-dasharray:none;stroke-opacity:1"
           d="M 72,121.45403 H 518.4" /></g></g><g
       id="g210"><path
         id="path212"
         style="fill:#555555;fill-opacity:1;fill-rule:nonzero;stroke:#555555;stroke-width:0.80000001;stroke-linecap:butt;stroke-linejoin:round;stroke-miterlimit:10;stroke-dasharray:none;stroke-opacity:1"
         d="M 72,121.45403 H 68.5" /><text
         id="text216"
         style="font-variant:normal;font-weight:normal;font-size:10px;font-family:'DejaVu Sans';-inkscape-font-specification:DejaVuSans;writing-mode:lr-tb;fill:#555555;fill-opacity:1;fill-rule:nonzero;stroke:none"
         transform="matrix(1,0,0,-1,42.734375,117.65715)"><tspan
           id="tspan214"
           y="0"
           x="0 6.3600001 9.54 15.9">0.78</tspan></text>
</g><g
       id="g218"><g
         clip-path="url(#clipPath224)"
         id="g220"><path
           id="path226"
           style="fill:none;stroke:#ffffff;stroke-width:0.80000001;stroke-linecap:square;stroke-linejoin:round;stroke-miterlimit:10;stroke-dasharray:none;stroke-opacity:1"
           d="M 72,181.34935 H 518.4" /></g></g><g
       id="g228"><path
         id="path230"
         style="fill:#555555;fill-opacity:1;fill-rule:nonzero;stroke:#555555;stroke-width:0.80000001;stroke-linecap:butt;stroke-linejoin:round;stroke-miterlimit:10;stroke-dasharray:none;stroke-opacity:1"
         d="M 72,181.34935 H 68.5" /><text
         id="text234"
         style="font-variant:normal;font-weight:normal;font-size:10px;font-family:'DejaVu Sans';-inkscape-font-specification:DejaVuSans;writing-mode:lr-tb;fill:#555555;fill-opacity:1;fill-rule:nonzero;stroke:none"
         transform="matrix(1,0,0,-1,42.734375,177.55247)"><tspan
           id="tspan232"
           y="0"
           x="0 6.3600001 9.54 15.9">0.80</tspan></text>
</g><g
       id="g236"><g
         clip-path="url(#clipPath242)"
         id="g238"><path
           id="path244"
           style="fill:none;stroke:#ffffff;stroke-width:0.80000001;stroke-linecap:square;stroke-linejoin:round;stroke-miterlimit:10;stroke-dasharray:none;stroke-opacity:1"
           d="M 72,241.24467 H 518.4" /></g></g><g
       id="g246"><path
         id="path248"
         style="fill:#555555;fill-opacity:1;fill-rule:nonzero;stroke:#555555;stroke-width:0.80000001;stroke-linecap:butt;stroke-linejoin:round;stroke-miterlimit:10;stroke-dasharray:none;stroke-opacity:1"
         d="M 72,241.24467 H 68.5" /><text
         id="text252"
         style="font-variant:normal;font-weight:normal;font-size:10px;font-family:'DejaVu Sans';-inkscape-font-specification:DejaVuSans;writing-mode:lr-tb;fill:#555555;fill-opacity:1;fill-rule:nonzero;stroke:none"
         transform="matrix(1,0,0,-1,42.734375,237.44779)"><tspan
           id="tspan250"
           y="0"
           x="0 6.3600001 9.54 15.9">0.82</tspan></text>
</g><g
       id="g254"><g
         clip-path="url(#clipPath260)"
         id="g256"><path
           id="path262"
           style="fill:none;stroke:#ffffff;stroke-width:0.80000001;stroke-linecap:square;stroke-linejoin:round;stroke-miterlimit:10;stroke-dasharray:none;stroke-opacity:1"
           d="M 72,301.13999 H 518.4" /></g></g><g
       id="g264"><path
         id="path266"
         style="fill:#555555;fill-opacity:1;fill-rule:nonzero;stroke:#555555;stroke-width:0.80000001;stroke-linecap:butt;stroke-linejoin:round;stroke-miterlimit:10;stroke-dasharray:none;stroke-opacity:1"
         d="M 72,301.13999 H 68.5" /><text
         id="text270"
         style="font-variant:normal;font-weight:normal;font-size:10px;font-family:'DejaVu Sans';-inkscape-font-specification:DejaVuSans;writing-mode:lr-tb;fill:#555555;fill-opacity:1;fill-rule:nonzero;stroke:none"
         transform="matrix(1,0,0,-1,42.734375,297.34311)"><tspan
           id="tspan268"
           y="0"
           x="0 6.3600001 9.54 15.9">0.84</tspan></text>
<text
         id="text274"
         style="font-variant:normal;font-weight:normal;font-size:12px;font-family:'DejaVu Sans';-inkscape-font-specification:DejaVuSans;writing-mode:lr-tb;fill:#555555;fill-opacity:1;fill-rule:nonzero;stroke:none"
         transform="matrix(0,1,1,0,36.234375,169.69687)"><tspan
           id="tspan272"
           y="0"
           x="0 8.2080002 15.816">Auc</tspan></text>
</g><g
       id="g276"><g
         clip-path="url(#clipPath282)"
         id="g278"><path
           id="path284"
           style="fill:none;stroke:#e24a33;stroke-width:1.5;stroke-linecap:square;stroke-linejoin:round;stroke-miterlimit:10;stroke-dasharray:none;stroke-opacity:1"
           d="m 92.290909,57.354545 2.039287,75.646805 2.039288,29.53604 2.039287,22.95691 2.039289,13.51368 2.03929,9.17701 2.03928,8.02859 2.03929,4.26634 4.07858,9.19219 2.03928,3.11436 2.03929,2.739 2.03929,2.3646 2.03929,1.91836 2.03928,2.22008 4.07858,3.35435 8.15715,5.28698 2.03928,0.86292 2.03929,1.06518 2.03929,0.70777 4.07857,1.67028 2.03929,0.5917 2.03929,1.0154 2.03928,0.57746 2.03929,0.4596 4.07858,1.30335 2.03928,0.40347 2.03929,0.54152 6.11786,1.17405 6.11787,0.41913 4.07857,0.14203 6.11786,0.50131 6.11786,0.14592 6.11787,0.0563 4.07857,0.085 6.11786,0.66597 2.03929,0.32133 2.03929,0.0557 4.07857,0.3202 6.11786,0.15833 2.03929,0.0205 2.03929,0.16393 16.3143,0.12385 2.03928,-0.13386 2.03929,0.14862 2.03929,-0.042 10.19644,0.67166 4.07857,0.26104 10.19644,0.25263 4.07857,0.48056 6.11786,0.66488 4.07858,0.28655 2.03929,0.045 4.07857,0.47988 12.23573,0.49178 2.03928,-0.15875 4.07858,0.1925 2.03928,-0.11595 6.11787,0.14691 4.07857,-0.0929 2.03929,0.17081 6.11786,-0.0342 2.03929,-0.0956 2.03929,0.15676 2.03928,-0.15839 2.03929,0.15918 10.19644,0.19412 2.03928,0.22589 2.03929,-0.13694 4.07858,0.20363 2.03928,-0.0297 4.07858,0.13627 2.03929,0.0198 2.03928,-0.11377 6.11786,0.14611 10.19644,0.2807 2.03929,-0.0374 4.07857,0.30454 2.03929,-0.0872 4.07858,-0.004 2.03928,-0.0748 4.07858,0.14 2.03929,-0.13644 2.03928,0.17906 8.15715,-0.0219 4.07858,0.0635 8.15715,0.0415 10.19643,0.44951 2.03929,-0.24632 2.03929,0.30892 2.03929,-0.15197 8.15714,0.0118 2.03929,-0.076 2.03929,0.21306 6.11786,-0.063 2.03929,0.10554 4.07857,-0.0704 2.03929,-0.1736 4.07857,0.20938 2.03929,-0.39328 2.03929,0.29207 2.03929,-0.0799 4.07857,0.15913 2.03929,-0.11783 12.23572,0.24823 h 2.03929 v 0" /></g></g><g
       id="g286"><g
         clip-path="url(#clipPath292)"
         id="g288"><path
           id="path294"
           style="fill:none;stroke:#348abd;stroke-width:1.5;stroke-linecap:square;stroke-linejoin:round;stroke-miterlimit:10;stroke-dasharray:none;stroke-opacity:1"
           d="m 92.290909,165.24257 2.039287,40.47752 2.039288,12.71458 2.039287,18.69329 2.039289,5.69916 2.03929,8.32113 2.03928,4.96574 2.03929,-0.54163 2.03929,2.40612 2.03929,3.6553 2.03928,2.5193 2.03929,-0.40591 2.03929,3.21054 2.03929,2.64545 4.07857,2.6834 2.03929,0.82654 2.03928,1.41239 4.07858,2.15499 2.03929,0.0926 2.03928,1.04711 4.07858,1.45287 2.03928,0.59436 2.03929,0.24685 2.03929,0.41022 2.03929,-0.0633 2.03928,0.5539 2.03929,0.29807 2.03929,0.14555 2.03929,0.69838 4.07857,0.68001 4.07858,0.11622 2.03928,0.54839 2.03929,0.76602 4.07858,0.43292 2.03928,-0.14524 2.03929,0.54121 2.03929,-0.03 4.07857,0.61284 4.07858,1.61102 2.03928,0.28746 4.07858,0.16439 2.03929,0.70016 2.03928,0.49125 2.03929,-0.12717 2.03929,0.47095 2.03929,0.34146 2.03928,0.0589 2.03929,0.35142 2.03929,0.72821 2.03928,0.0883 2.03929,0.59142 4.07858,0.767 2.03928,0.78515 2.03929,0.24841 2.03929,0.0125 2.03929,0.54269 2.03928,0.36282 2.03929,0.18457 4.07858,0.0632 2.03928,-0.11917 4.07858,0.56086 2.03928,-0.0207 4.07858,0.35107 4.07857,0.005 2.03929,0.13576 2.03929,0.26685 2.03929,-0.0487 2.03928,0.28576 6.11787,0.10638 2.03928,0.24741 4.07858,0.23307 4.07857,-0.002 2.03929,0.62477 2.03929,-0.0279 2.03928,0.21005 4.07858,0.0588 2.03929,-0.0754 2.03928,0.0822 2.03929,-0.0392 6.11786,0.67622 4.07858,0.082 2.03929,0.355 2.03928,0.15597 4.07858,0.0609 4.07857,0.0918 2.03929,-0.0616 2.03929,0.42645 6.11786,0.31432 2.03929,0.31377 10.19643,0.40214 4.07858,0.002 4.07857,0.23371 4.07858,-0.007 10.19643,0.36168 4.07858,0.1908 2.03929,0.16424 2.03928,0.0383 2.03929,0.21947 2.03929,0.0497 2.03928,0.22335 6.11787,0.0901 6.11786,0.005 6.11786,0.21561 4.07858,0.0407 12.23572,0.54974 14.27501,0.16027 2.03929,0.12076 2.03929,0.23926 2.03928,0.052 6.11787,0.41541 8.15715,0.26499 4.07857,0.0367 14.27501,0.0892 4.07858,0.14377 6.11786,0.0972 4.07857,-0.0934 14.27501,0.41845 4.07858,0.0299 2.03929,0.038 2.03928,-0.089 2.03929,0.0354 v 0" /></g></g><g
       id="g296"><path
         id="path298"
         style="fill:none;stroke:#ffffff;stroke-width:1;stroke-linecap:square;stroke-linejoin:miter;stroke-miterlimit:10;stroke-dasharray:none;stroke-opacity:1"
         d="M 72,45 V 316.8" /><path
         id="path300"
         style="fill:none;stroke:#ffffff;stroke-width:1;stroke-linecap:square;stroke-linejoin:miter;stroke-miterlimit:10;stroke-dasharray:none;stroke-opacity:1"
         d="M 518.4,45 V 316.8" /><path
         id="path302"
         style="fill:none;stroke:#ffffff;stroke-width:1;stroke-linecap:square;stroke-linejoin:miter;stroke-miterlimit:10;stroke-dasharray:none;stroke-opacity:1"
         d="M 72,45 H 518.4" /><path
         id="path304"
         style="fill:none;stroke:#ffffff;stroke-width:1;stroke-linecap:square;stroke-linejoin:miter;stroke-miterlimit:10;stroke-dasharray:none;stroke-opacity:1"
         d="M 72,316.8 H 518.4" /><text
         id="text308"
         style="font-variant:normal;font-weight:normal;font-size:14.39999962px;font-family:'DejaVu Sans';-inkscape-font-specification:DejaVuSans;writing-mode:lr-tb;fill:#000000;fill-opacity:1;fill-rule:nonzero;stroke:none"
         transform="matrix(1,0,0,-1,201.46562,322.8)"><tspan
           id="tspan306"
           y="0"
           x="0 10.0512 15.9696 24.7824 32.284801 39.787201 44.9856 54.835201 63.662399 67.665604 71.6688 80.812798 89.639999 95.284798 99.288002 108.1008 117.2304 121.8096 131.65919 139.57919 147.49921 156.6288 162.5472 171.3744 179.2944">Cross-Validation Accuracy</tspan></text>
<path
         id="path310"
         style="fill:#e5e5e5;fill-opacity:0.8;fill-rule:nonzero;stroke:#cccccc;stroke-width:0.5;stroke-linecap:butt;stroke-linejoin:miter;stroke-miterlimit:10;stroke-dasharray:none;stroke-opacity:0.8"
         d="M 424.025,50 H 511.4 c 1.33333,0 2,0.666667 2,2 v 28.90625 c 0,1.333333 -0.66667,2 -2,2 h -87.375 c -1.33333,0 -2,-0.666667 -2,-2 V 52 c 0,-1.333333 0.66667,-2 2,-2 z" /><path
         id="path312"
         style="fill:none;stroke:#e24a33;stroke-width:1.5;stroke-linecap:square;stroke-linejoin:round;stroke-miterlimit:10;stroke-dasharray:none;stroke-opacity:1"
         d="m 426.025,74.8125 h 20" /><text
         id="text316"
         style="font-variant:normal;font-weight:normal;font-size:10px;font-family:'DejaVu Sans';-inkscape-font-specification:DejaVuSans;writing-mode:lr-tb;fill:#000000;fill-opacity:1;fill-rule:nonzero;stroke:none"
         transform="matrix(1,0,0,-1,454.025,71.3125)"><tspan
           id="tspan314"
           y="0"
           x="0 6.3499999 12.5 16.02 22.139999 26.25 32.400002 37.400002 43.529999 49.869999">before_auc</tspan></text>
<path
         id="path318"
         style="fill:none;stroke:#348abd;stroke-width:1.5;stroke-linecap:square;stroke-linejoin:round;stroke-miterlimit:10;stroke-dasharray:none;stroke-opacity:1"
         d="m 426.025,59.859375 h 20" /><text
         id="text322"
         style="font-variant:normal;font-weight:normal;font-size:10px;font-family:'DejaVu Sans';-inkscape-font-specification:DejaVuSans;writing-mode:lr-tb;fill:#000000;fill-opacity:1;fill-rule:nonzero;stroke:none"
         transform="matrix(1,0,0,-1,454.025,56.359375)"><tspan
           id="tspan320"
           y="0"
           x="0 6.1300001 9.6499996 13.57 19.719999 23.83 28.83 34.959999 41.299999">after_auc</tspan></text>
</g></g></svg>